# xmcd
#
# Track frame offsets: 
#        150
#        24267
#        46197
#        67422
#        89510
#        114015
#        138927
#        164402
#        191100
#
# Disc length: 2818 seconds
#
# Revision: 2
# Processed by: cddbd v1.5.2PL0 Copyright (c) Steve Scherf et al.
# Submitted via: ExactAudioCopy v1.3
#
DISCID=760b0009
DTITLE=Demetrius Perry - Another World
DYEAR=1990
DGENRE=Funk
TTITLE0=Another World
TTITLE1=Can-Do Can-Do (Anything for you)
TTITLE2=Breathless
TTITLE3=Betcha Don't Know
TTITLE4=Use Me
TTITLE5=I'll Take You There
TTITLE6=Are You Lonely
TTITLE7=I´ll Be True
TTITLE8=Everything A Man Could Want
EXTD=
EXTT0=
EXTT1=
EXTT2=
EXTT3=
EXTT4=
EXTT5=
EXTT6=
EXTT7=
EXTT8=
PLAYORDER=
